<svg xmlns="http://www.w3.org/2000/svg" viewBox="0 0 512 512" aria-hidden="true">
  <circle cx="256" cy="256" r="256" fill="#263A7A" />
  <path
    fill="#121149"
    d="M509.185 294.029 329.938 119.861l-12.451 56.839-153.428 146.532-43.672 6.896 173.37 179.095c111.068-16.42 198.89-104.164 215.428-215.194Z"
  />
  <path fill="#121149" d="m119.658 284.207 45.837 46.783-3.734-50.281z" />
  <path fill="#121149" d="m119.648 193.195 40.101 40.106.862-42.235z" />
  <path fill="#121149" d="m119.972 238.833 38.915 38.428-1.15-43.098z" />
  <path fill="#121149" d="m284.158 119.811 45.97 45.972-46.546-2.874z" />
  <path fill="#121149" d="m238.761 119.811 41.662 41.662-48.558.286z" />
  <path fill="#121149" d="m193.284 119.892 42.029 42.443-50.567-2.874z" />
  <path
    fill="#FEE187"
    d="M187.733 178.424c-4.284 0-7.758-3.474-7.758-7.758v-45.511c0-4.284 3.474-7.758 7.758-7.758s7.758 3.474 7.758 7.758v45.511c0 4.285-3.472 7.758-7.758 7.758Zm45.511 0c-4.284 0-7.758-3.474-7.758-7.758v-45.511c0-4.284 3.474-7.758 7.758-7.758s7.758 3.474 7.758 7.758v45.511c0 4.285-3.474 7.758-7.758 7.758Z"
  />
  <path
    fill="#FFC61B"
    d="M324.267 178.424c-4.284 0-7.758-3.474-7.758-7.758v-45.511c0-4.284 3.474-7.758 7.758-7.758s7.758 3.474 7.758 7.758v45.511c-.001 4.285-3.474 7.758-7.758 7.758Zm-45.511 0c-4.284 0-7.758-3.474-7.758-7.758v-45.511c0-4.284 3.474-7.758 7.758-7.758s7.757 3.474 7.757 7.758v45.511c0 4.285-3.472 7.758-7.757 7.758Z"
  />
  <path
    fill="#FEE187"
    d="M187.733 394.602c-4.284 0-7.758-3.474-7.758-7.758v-45.511c0-4.284 3.474-7.758 7.758-7.758s7.758 3.474 7.758 7.758v45.511c0 4.286-3.472 7.758-7.758 7.758Zm45.511 0c-4.284 0-7.758-3.474-7.758-7.758v-45.511c0-4.284 3.474-7.758 7.758-7.758s7.758 3.474 7.758 7.758v45.511c0 4.286-3.474 7.758-7.758 7.758Z"
  />
  <path
    fill="#FFC61B"
    d="M324.267 394.602c-4.284 0-7.758-3.474-7.758-7.758v-45.511c0-4.284 3.474-7.758 7.758-7.758s7.758 3.474 7.758 7.758v45.511c-.001 4.286-3.474 7.758-7.758 7.758Zm-45.511 0c-4.284 0-7.758-3.474-7.758-7.758v-45.511c0-4.284 3.474-7.758 7.758-7.758s7.757 3.474 7.757 7.758v45.511c0 4.286-3.472 7.758-7.757 7.758Zm108.088-199.111h-45.511c-4.284 0-7.758-3.474-7.758-7.758s3.474-7.758 7.758-7.758h45.511c4.284 0 7.758 3.474 7.758 7.758s-3.472 7.758-7.758 7.758Zm0 45.511h-45.511c-4.284 0-7.758-3.474-7.758-7.758s3.474-7.758 7.758-7.758h45.511c4.284 0 7.758 3.474 7.758 7.758s-3.472 7.758-7.758 7.758Zm0 91.022h-45.511c-4.284 0-7.758-3.474-7.758-7.758s3.474-7.758 7.758-7.758h45.511c4.284 0 7.758 3.474 7.758 7.758s-3.472 7.758-7.758 7.758Zm0-45.511h-45.511c-4.284 0-7.758-3.474-7.758-7.758s3.474-7.758 7.758-7.758h45.511c4.284 0 7.758 3.474 7.758 7.758s-3.472 7.758-7.758 7.758Z"
  />
  <path
    fill="#FEE187"
    d="M170.667 195.491h-45.511c-4.284 0-7.758-3.474-7.758-7.758s3.474-7.758 7.758-7.758h45.511c4.284 0 7.758 3.474 7.758 7.758s-3.474 7.758-7.758 7.758Zm0 45.511h-45.511c-4.284 0-7.758-3.474-7.758-7.758s3.474-7.758 7.758-7.758h45.511c4.284 0 7.758 3.474 7.758 7.758s-3.474 7.758-7.758 7.758Zm0 91.022h-45.511c-4.284 0-7.758-3.474-7.758-7.758s3.474-7.758 7.758-7.758h45.511c4.284 0 7.758 3.474 7.758 7.758s-3.474 7.758-7.758 7.758Zm0-45.511h-45.511c-4.284 0-7.758-3.474-7.758-7.758s3.474-7.758 7.758-7.758h45.511c4.284 0 7.758 3.474 7.758 7.758s-3.474 7.758-7.758 7.758Z"
  />
  <path
    fill="#7CBF34"
    d="M170.953 358.572h170.093c9.68 0 17.527-7.847 17.527-17.527V170.953c0-9.678-7.847-17.525-17.527-17.525H170.953c-9.678 0-17.525 7.847-17.525 17.525v170.093c0 9.679 7.847 17.526 17.525 17.526Z"
  />
  <path
    fill="#63AA1F"
    d="M341.045 153.428H256v205.145h85.045c9.68 0 17.527-7.847 17.527-17.527V170.955c0-9.68-7.847-17.527-17.527-17.527Z"
  />
  <path
    fill="#DDD"
    d="M188.194 341.333h135.614c9.68 0 17.527-7.847 17.527-17.527V188.192c-.002-9.678-7.849-17.525-17.527-17.525H188.194c-9.68 0-17.527 7.847-17.527 17.525v135.615c0 9.679 7.847 17.526 17.527 17.526Z"
  />
  <path
    fill="#B7B7B7"
    d="M323.806 170.667H256v170.667h67.806c9.68 0 17.527-7.847 17.527-17.527V188.192c0-9.678-7.847-17.525-17.527-17.525Z"
  />
  <path fill="#FFC61B" d="M312.889 227.556h28.444v56.889h-28.444z" />
</svg>
